<svg viewBox="0 0 800 800" xmlns="http://www.w3.org/2000/svg"><path d="M-1.019689524955595,579.5068647346102 L-18.739267489422787,579.5068577195352 M-1.019689524955595,579.5068647346102 L187.90220860051642,715.3988681138594 M186.4117997948577,728.0544875789781 L187.90220860051642,715.3988681138594 M-18.739267489422787,579.5068577195352 L186.4117997948577,728.0544875789781 M-26.356041609944725,520.854713923726 L-8.336352574069451,520.8547208406098 M-26.356041609944725,520.854713923726 L-18.739267489422787,579.5068577195352 M-8.336352574069451,520.8547208406098 L-1.019689524955595,579.5068647346102 M-8.336352574069451,520.8547208406098 L183.48983934641566,655.0047521159597 M183.48983934641566,655.0047521159597 L187.90220860051642,715.3988681138594 M183.48983934641566,655.0047521159597 L181.94465940296084,667.514464674694 M181.94465940296084,667.514464674694 L186.4117997948577,728.0544875789781 M-26.356041609944725,520.854713923726 L181.94465940296084,667.514464674694" stroke="black"  stroke-width="4"  fill="red"/>
<path d="M620.9876464354834,189.61736876865777 L620.0868245377003,182.32448711752275 M620.9876464354834,189.61736876865777 L813.5355055146091,279.3014298225995 M829.2269338527723,279.30143506754166 L813.5355055146091,279.3014298225995 M620.0868245377003,182.32448711752275 L829.2269338527723,279.30143506754166 M617.4998432310448,235.13233725315757 L618.376130128665,242.57307767546226 M617.4998432310448,235.13233725315757 L620.0868245377003,182.32448711752275 M618.376130128665,242.57307767546226 L620.9876464354834,189.61736876865777 M618.376130128665,242.57307767546226 L807.9754537654787,333.9962074279311 M807.9754537654787,333.9962074279311 L813.5355055146091,279.3014298225995 M807.9754537654787,333.9962074279311 L823.4388227194693,333.9962127702973 M823.4388227194693,333.9962127702973 L829.2269338527723,279.30143506754166 M617.4998432310448,235.13233725315757 L823.4388227194693,333.9962127702973" stroke="black"  stroke-width="4"  fill="red"/>
<path d="M611.0645245616641,242.57307289785587 L610.2224372601088,235.13233725315757 M611.0645245616641,242.57307289785587 L0.2064672663632905,574.0340655152488 M-17.462806709386427,574.0340655152488 L0.2064672663632905,574.0340655152488 M610.2224372601088,235.13233725315757 L-17.462806709386427,574.0340655152488 M612.7084823506311,182.32448711752284 L613.5741472302348,189.61736408568456 M612.7084823506311,182.32448711752284 L610.2224372601088,235.13233725315757 M613.5741472302348,189.61736408568456 L611.0645245616641,242.57307289785587 M613.5741472302348,189.61736408568456 L-7.068370729004869,515.458784614083 M-7.068370729004869,515.458784614083 L0.2064672663632905,574.0340655152488 M-7.068370729004869,515.458784614083 L-25.03604007495852,515.458784614083 M-25.03604007495852,515.458784614083 L-17.462806709386427,574.0340655152488 M612.7084823506311,182.32448711752284 L-25.03604007495852,515.458784614083" stroke="black"  stroke-width="4"  fill="red"/>
<path d="M814.5022308260758,283.41527945119753 L830.2333000576475,283.41527945119753 M814.5022308260758,283.41527945119753 L193.14620699324635,655.0047600611249 M191.66130439781517,667.514464674694 L193.14620699324635,655.0047600611249 M830.2333000576475,283.41527945119753 L191.66130439781517,667.514464674694 M824.4161125415443,338.1863173181463 L808.9142481606121,338.1863173181463 M824.4161125415443,338.1863173181463 L830.2333000576475,283.41527945119753 M808.9142481606121,338.1863173181463 L814.5022308260758,283.41527945119753 M808.9142481606121,338.1863173181463 L197.386418715179,715.3988761525875 M197.386418715179,715.3988761525875 L193.14620699324635,655.0047600611249 M197.386418715179,715.3988761525875 L195.95415043090307,728.0544875789778 M195.95415043090307,728.0544875789778 L191.66130439781517,667.514464674694 M824.4161125415443,338.1863173181463 L195.95415043090307,728.0544875789778" stroke="black"  stroke-width="4"  fill="red"/>
<path d="M-8.352331664206247,520.7266285821978 L-26.37267612207131,520.7266216655363 M-8.352331664206247,520.7266285821978 L183.48019149332137,654.8726975381685 M181.93489070058203,667.3820762978187 L183.48019149332137,654.8726975381685 M-26.37267612207131,520.7266216655363 L181.93489070058203,667.3820762978187 M-34.252480272829985,460.0490436226362 L-15.92166101007939,460.0490504300925 M-34.252480272829985,460.0490436226362 L-26.37267612207131,520.7266216655363 M-15.92166101007939,460.0490504300925 L-8.352331664206247,520.7266285821978 M-15.92166101007939,460.0490504300925 L178.9043134098065,592.240561410576 M178.9043134098065,592.240561410576 L183.48019149332137,654.8726975381685 M178.9043134098065,592.240561410576 L177.30115901397352,604.5843583329997 M177.30115901397352,604.5843583329997 L181.93489070058203,667.3820762978187 M-34.252480272829985,460.0490436226362 L177.30115901397352,604.5843583329997" stroke="black"  stroke-width="4"  fill="red"/>
<path d="M623.6788276500448,135.0462337381465 L622.7523696044584,127.91292099874227 M623.6788276500448,135.0462337381465 L819.2744982610136,222.84639197294084 M835.2013256950364,222.8463971119515 L819.2744982610136,222.84639197294084 M622.7523696044584,127.91292099874227 L835.2013256950364,222.8463971119515 M620.0924572515974,182.2095069626339 L620.9933329415368,189.50205914624686 M620.0924572515974,182.2095069626339 L622.7523696044584,127.91292099874227 M620.9933329415368,189.50205914624686 L623.6788276500448,135.0462337381465 M620.9933329415368,189.50205914624686 L813.5476220993567,279.1822377830274 M813.5476220993567,279.1822377830274 L819.2744982610136,222.84639197294084 M813.5476220993567,279.1822377830274 L829.2395474294516,279.1822430277516 M829.2395474294516,279.1822430277516 L835.2013256950364,222.8463971119515 M620.0924572515974,182.2095069626339 L829.2395474294516,279.1822430277516" stroke="black"  stroke-width="4"  fill="red"/>
<path d="M613.5796118656493,189.5020544634846 L612.713895293003,182.2095069626339 M613.5796118656493,189.5020544634846 L-7.084257710703014,515.3308663819192 M-25.052578700279355,515.3308663819192 L-7.084257710703014,515.3308663819192 M612.713895293003,182.2095069626339 L-25.052578700279355,515.3308663819192 M615.2700258800456,127.91292099874227 L616.1603265173743,135.04622915732955 M615.2700258800456,127.91292099874227 L612.713895293003,182.2095069626339 M616.1603265173743,135.04622915732955 L613.5796118656493,189.5020544634846 M616.1603265173743,135.04622915732955 L-14.60958006749263,454.7387444403135 M-14.60958006749263,454.7387444403135 L-7.084257710703014,515.3308663819192 M-14.60958006749263,454.7387444403135 L-32.88657065933205,454.7387444403135 M-32.88657065933205,454.7387444403135 L-25.052578700279355,515.3308663819192 M615.2700258800456,127.91292099874227 L-32.88657065933205,454.7387444403135" stroke="black"  stroke-width="4"  fill="red"/>
<path d="M820.2704839074153,226.8773073674954 L836.2381522240433,226.87730736749552 M820.2704839074153,226.8773073674954 L188.73959464719917,592.2405692494576 M187.19897940335898,604.5843583329997 L188.73959464719917,592.2405692494576 M836.2381522240433,226.87730736749552 L187.19897940335898,604.5843583329997 M830.2459774648131,283.29591683034255 L814.5144087267001,283.29591683034255 M830.2459774648131,283.29591683034255 L836.2381522240433,226.87730736749552 M814.5144087267001,283.29591683034255 L820.2704839074153,226.8773073674954 M814.5144087267001,283.29591683034255 L193.13693557070008,654.8727054831195 M193.13693557070008,654.8727054831195 L188.73959464719917,592.2405692494576 M193.13693557070008,654.8727054831195 L191.65191684077055,667.3820762978187 M191.65191684077055,667.3820762978187 L187.19897940335898,604.5843583329997 M830.2459774648131,283.29591683034255 L191.65191684077055,667.3820762978187" stroke="black"  stroke-width="4"  fill="red"/>
<path d="M-15.938195827233926,459.91650332924706 L-34.26969330649342,459.9164965220378 M-15.938195827233926,459.91650332924706 L178.89430523486917,592.1035749429245 M177.29102313138628,604.4469938201003 L178.89430523486917,592.1035749429245 M-34.26969330649342,459.9164965220378 L177.29102313138628,604.4469938201003 M-42.42639074828281,397.1067316944628 L-23.77350849977381,397.10673838046347 M-42.42639074828281,397.1067316944628 L-34.26969330649342,459.9164965220378 M-23.77350849977381,397.10673838046347 L-15.938195827233926,459.91650332924706 M-23.77350849977381,397.10673838046347 L174.1456585961665,527.1066765839962 M174.1456585961665,527.1066765839962 L178.89430523486917,592.1035749429245 M174.1456585961665,527.1066765839962 L172.481204711754,539.2628957742502 M172.481204711754,539.2628957742502 L177.29102313138628,604.4469938201003 M-42.42639074828281,397.1067316944628 L172.481204711754,539.2628957742502" stroke="black"  stroke-width="4"  fill="red"/>
<path d="M626.447337503735,78.90704688533759 L625.4941331756063,71.94551242102204 M626.447337503735,78.90704688533759 L825.1883028574292,164.671712707962 M841.3576997317824,164.67171773210507 L825.1883028574292,164.671712707962 M625.4941331756063,71.94551242102204 L841.3576997317824,164.67171773210507 M622.7581619372941,127.79468255475467 L623.6846760847676,134.92764056454365 M622.7581619372941,127.79468255475467 L625.4941331756063,71.94551242102204 M623.6846760847676,134.92764056454365 L626.447337503735,78.90704688533759 M623.6846760847676,134.92764056454365 L819.2869804838855,222.7236031150668 M819.2869804838855,222.7236031150668 L825.1883028574292,164.671712707962 M819.2869804838855,222.7236031150668 L835.2143199074007,222.723608253841 M835.2143199074007,222.723608253841 L841.3576997317824,164.67171773210507 M622.7581619372941,127.79468255475467 L835.2143199074007,222.723608253841" stroke="black"  stroke-width="4"  fill="red"/>
<path d="M616.1659467634802,134.9276359839539 L615.2755922135061,127.79468255475467 M616.1659467634802,134.9276359839539 L-14.626017934365905,454.6063906105613 M-32.90368276573804,454.6063906105613 L-14.626017934365905,454.6063906105613 M615.2755922135061,127.79468255475467 L-32.90368276573804,454.6063906105613 M617.9048140974513,71.94551242102204 L618.8208173087371,78.90704241452312 M617.9048140974513,71.94551242102204 L615.2755922135061,127.79468255475467 M618.8208173087371,78.90704241452312 L616.1659467634802,134.9276359839539 M618.8208173087371,78.90704241452312 L-22.414987236049456,391.89144560873905 M-22.414987236049456,391.89144560873905 L-14.626017934365905,454.6063906105613 M-22.414987236049456,391.89144560873905 L-41.01213579747355,391.89144560873905 M-41.01213579747355,391.89144560873905 L-32.90368276573804,454.6063906105613 M617.9048140974513,71.94551242102204 L-41.01213579747355,391.89144560873905" stroke="black"  stroke-width="4"  fill="red"/>
<path d="M826.2148976825397,168.61268282125275 L842.4263907482829,168.61268282125275 M826.2148976825397,168.61268282125275 L184.16660839755448,527.1066843028309 M182.5670851957176,539.26289577425 L184.16660839755448,527.1066843028309 M842.4263907482829,168.61268282125275 L182.5670851957176,539.26289577425 M836.2512131833639,226.75433345689774 L820.2830302477347,226.75433345689765 M836.2512131833639,226.75433345689774 L842.4263907482829,168.61268282125275 M820.2830302477347,226.75433345689765 L826.2148976825397,168.61268282125275 M820.2830302477347,226.75433345689765 L188.72997696149562,592.1035827815645 M188.72997696149562,592.1035827815645 L184.16660839755448,527.1066843028309 M188.72997696149562,592.1035827815645 L187.18923899237132,604.4469938201003 M187.18923899237132,604.4469938201003 L182.5670851957176,539.26289577425 M836.2512131833639,226.75433345689774 L187.18923899237132,604.4469938201003" stroke="black"  stroke-width="4"  fill="red"/></svg>